# xmcd CD Database Entry
#
# Track frame offsets:
# 150
# 14323
# 27837
# 41443
# 54018
# 67928
# 78872
# 88764
# 100111
# 118610
# 128961
# 152138
# 170404
# 184183
# 208074
# 225795
#
# Disc length: 3186 seconds
#
# Revision: 1
# Processed by: cddbd v1.4PL0 Copyright (c) Steve Scherf et al.
# Submitted via: tcd 2.0b
#
DISCID=bb0c7010
DTITLE=John Lee Hooker - The Very Best Of
DYEAR=1900
DGENRE=
TTITLE0=Boogie Chillen'
TTITLE1=Crawlin' King Snake
TTITLE2=Hobo Blues
TTITLE3=Huckle Up Baby
TTITLE4=I'm In The Mood
TTITLE5=I Need Some Money
TTITLE6=Dimples
TTITLE7=Boom Boom
TTITLE8=Shake It Baby
TTITLE9=Big Legs, Tight Skirt
TTITLE10=It Serves You Right To Suffer
TTITLE11=You Know, I Know
TTITLE12=One Bourbon, One Scotch, One Beer
TTITLE13=I'm Bad Like Jesse James
TTITLE14=Burning Hell
TTITLE15=Terraplane Blues
EXTD=
EXTT0=
EXTT1=
EXTT2=
EXTT3=
EXTT4=
EXTT5=
EXTT6=
EXTT7=
EXTT8=
EXTT9=
EXTT10=
EXTT11=
EXTT12=
EXTT13=
EXTT14=
EXTT15=
PLAYORDER=
